<svg width="30" height="30" viewBox="0 0 30 30" fill="none" xmlns="http://www.w3.org/2000/svg">
<g filter="url(#filter0_d_4718_2336)">
<mask id="path-1-outside-1_4718_2336" maskUnits="userSpaceOnUse" x="6" y="6.49936" width="18" height="17" fill="black">
<rect fill="white" x="6" y="6.49936" width="18" height="17"/>
<path fill-rule="evenodd" clip-rule="evenodd" d="M13.4373 7.93381C14.0427 8.22079 14.5766 8.63912 15 9.15836C15.826 8.14536 17.09 7.49936 18.5 7.49936C20.976 7.49936 23 9.48936 23 11.9664C23 14.2174 21.733 16.3064 20.273 18.0104C18.792 19.7384 16.976 21.2284 15.614 22.2884C15.4385 22.4249 15.2224 22.4991 15 22.4991C14.7776 22.4991 14.5615 22.4249 14.386 22.2884C13.024 21.2284 11.208 19.7394 9.727 18.0104C8.267 16.3064 7 14.2174 7 11.9664C7 9.48936 9.024 7.49936 11.5 7.49936C12.17 7.49841 12.8318 7.64683 13.4373 7.93381Z"/>
</mask>
<path fill-rule="evenodd" clip-rule="evenodd" d="M13.4373 7.93381C14.0427 8.22079 14.5766 8.63912 15 9.15836C15.826 8.14536 17.09 7.49936 18.5 7.49936C20.976 7.49936 23 9.48936 23 11.9664C23 14.2174 21.733 16.3064 20.273 18.0104C18.792 19.7384 16.976 21.2284 15.614 22.2884C15.4385 22.4249 15.2224 22.4991 15 22.4991C14.7776 22.4991 14.5615 22.4249 14.386 22.2884C13.024 21.2284 11.208 19.7394 9.727 18.0104C8.267 16.3064 7 14.2174 7 11.9664C7 9.48936 9.024 7.49936 11.5 7.49936C12.17 7.49841 12.8318 7.64683 13.4373 7.93381Z" fill="white"/>
<path d="M15 9.15836L14.225 9.79035L15 10.7407L15.775 9.79031L15 9.15836ZM13.4373 7.93381L13.8656 7.03018L13.4373 7.93381ZM20.273 18.0104L21.0323 18.6611L21.0324 18.661L20.273 18.0104ZM15.614 22.2884L16.228 23.0777L16.2282 23.0775L15.614 22.2884ZM14.386 22.2884L13.7718 23.0775L13.772 23.0777L14.386 22.2884ZM9.727 18.0104L10.4865 17.3598L10.4864 17.3597L9.727 18.0104ZM11.5 7.49936V8.49936L11.5014 8.49936L11.5 7.49936ZM15.775 8.52638C15.2576 7.89195 14.6053 7.38082 13.8656 7.03018L13.0089 8.83743C13.4801 9.06075 13.8955 9.38629 14.225 9.79035L15.775 8.52638ZM18.5 6.49936C16.7788 6.49936 15.2341 7.28889 14.225 8.52642L15.775 9.79031C16.4179 9.00184 17.4012 8.49936 18.5 8.49936V6.49936ZM24 11.9664C24 8.92737 21.5185 6.49936 18.5 6.49936V8.49936C20.4335 8.49936 22 10.0514 22 11.9664H24ZM21.0324 18.661C22.5402 16.9013 24 14.5811 24 11.9664H22C22 13.8537 20.9258 15.7115 19.5136 17.3597L21.0324 18.661ZM16.2282 23.0775C17.601 22.0091 19.483 20.4688 21.0323 18.6611L19.5137 17.3596C18.101 19.0079 16.351 20.4476 14.9998 21.4992L16.2282 23.0775ZM15 23.4991C15.4448 23.4991 15.8769 23.3508 16.228 23.0777L15 21.4991L15 21.4991V23.4991ZM13.772 23.0777C14.1231 23.3508 14.5552 23.4991 15 23.4991V21.4991V21.4991L13.772 23.0777ZM8.96753 18.6609C10.517 20.4698 12.3993 22.0093 13.7718 23.0775L15.0002 21.4992C13.6487 20.4474 11.899 19.0089 10.4865 17.3598L8.96753 18.6609ZM6 11.9664C6 14.5811 7.45985 16.9013 8.96762 18.661L10.4864 17.3597C9.07415 15.7115 8 13.8537 8 11.9664H6ZM11.5 6.49936C8.48147 6.49936 6 8.92737 6 11.9664H8C8 10.0514 9.56653 8.49936 11.5 8.49936V6.49936ZM13.8656 7.03018C13.1258 6.67954 12.3172 6.4982 11.4986 6.49936L11.5014 8.49936C12.0228 8.49862 12.5378 8.61411 13.0089 8.83743L13.8656 7.03018Z" fill="white" mask="url(#path-1-outside-1_4718_2336)"/>
</g>
<defs>
<filter id="filter0_d_4718_2336" x="-3" y="-2.50064" width="36" height="34.9997" filterUnits="userSpaceOnUse" color-interpolation-filters="sRGB">
<feFlood flood-opacity="0" result="BackgroundImageFix"/>
<feColorMatrix in="SourceAlpha" type="matrix" values="0 0 0 0 0 0 0 0 0 0 0 0 0 0 0 0 0 0 127 0" result="hardAlpha"/>
<feOffset/>
<feGaussianBlur stdDeviation="3"/>
<feComposite in2="hardAlpha" operator="out"/>
<feColorMatrix type="matrix" values="0 0 0 0 0 0 0 0 0 0 0 0 0 0 0 0 0 0 0.6 0"/>
<feBlend mode="normal" in2="BackgroundImageFix" result="effect1_dropShadow_4718_2336"/>
<feBlend mode="normal" in="SourceGraphic" in2="effect1_dropShadow_4718_2336" result="shape"/>
</filter>
</defs>
</svg>
