<svg width="21" height="19" viewBox="0 0 21 19" fill="none" xmlns="http://www.w3.org/2000/svg">
<path fill-rule="evenodd" clip-rule="evenodd" d="M0.400391 0.828666C0.400391 0.434176 0.720187 0.11438 1.11468 0.11438H19.6861C20.0806 0.11438 20.4004 0.434176 20.4004 0.828666C20.4004 1.22315 20.0806 1.54295 19.6861 1.54295H1.11468C0.720187 1.54295 0.400391 1.22315 0.400391 0.828666ZM17.5432 4.40006H3.25753C1.67958 4.40006 0.400391 5.67925 0.400391 7.25721V11.5429C0.400391 13.1209 1.67958 14.4001 3.25753 14.4001H17.5432C19.1212 14.4001 20.4004 13.1209 20.4004 11.5429V7.25721C20.4004 5.67925 19.1212 4.40006 17.5432 4.40006ZM1.8291 7.25735C1.8291 6.46837 2.46869 5.82878 3.25767 5.82878H17.5434C18.3324 5.82878 18.972 6.46837 18.972 7.25735V11.5431C18.972 12.332 18.3324 12.9716 17.5434 12.9716H3.25767C2.46869 12.9716 1.8291 12.332 1.8291 11.5431V7.25735ZM1.11468 17.2573C0.720187 17.2573 0.400391 17.5771 0.400391 17.9716C0.400391 18.3661 0.720187 18.6859 1.11468 18.6859H19.6861C20.0806 18.6859 20.4004 18.3661 20.4004 17.9716C20.4004 17.5771 20.0806 17.2573 19.6861 17.2573H1.11468Z" fill="#C4C4C4"/>
</svg>
