<svg width="21" height="24" viewBox="0 0 21 24" fill="none" xmlns="http://www.w3.org/2000/svg">
<path fill-rule="evenodd" clip-rule="evenodd" d="M17.5432 0.799927H3.25753C1.67958 0.799927 0.400391 2.07911 0.400391 3.65707V7.94278C0.400391 9.52074 1.67958 10.7999 3.25753 10.7999H17.5432C19.1212 10.7999 20.4004 9.52074 20.4004 7.94278V3.65707C20.4004 2.07911 19.1212 0.799927 17.5432 0.799927ZM1.82902 3.65709C1.82902 2.86811 2.46861 2.22852 3.25759 2.22852H17.5433C18.3323 2.22852 18.9719 2.86811 18.9719 3.65709V7.9428C18.9719 8.73178 18.3323 9.37137 17.5433 9.37137H3.25759C2.46861 9.37137 1.82902 8.73178 1.82902 7.9428V3.65709ZM3.25753 13.6571H17.5432C19.1212 13.6571 20.4004 14.9362 20.4004 16.5142V20.7999C20.4004 22.3779 19.1212 23.6571 17.5432 23.6571H3.25753C1.67958 23.6571 0.400391 22.3779 0.400391 20.7999V16.5142C0.400391 14.9362 1.67958 13.6571 3.25753 13.6571ZM1.82902 16.5141C1.82902 15.7252 2.46861 15.0856 3.25759 15.0856H17.5433C18.3323 15.0856 18.9719 15.7252 18.9719 16.5141V20.7999C18.9719 21.5888 18.3323 22.2284 17.5433 22.2284H3.25759C2.46861 22.2284 1.82902 21.5888 1.82902 20.7999V16.5141Z" fill="#515151"/>
</svg>
